<svg width="48" height="58" viewBox="0 0 48 58" fill="none" xmlns="http://www.w3.org/2000/svg">
<path d="M42.2384 10.2365C37.573 3.55904 28.3588 1.57983 21.6965 5.8246L9.99586 13.282C8.41521 14.2764 7.05944 15.5896 6.01521 17.1378C4.97098 18.686 4.26127 20.435 3.93144 22.2731C3.37329 25.3693 3.86387 28.5631 5.3255 31.3491C4.32395 32.8684 3.64085 34.5749 3.31749 36.3657C2.98416 38.2408 3.02861 40.1636 3.44823 42.0213C3.86785 43.879 4.65419 45.6342 5.76113 47.184C10.4275 53.862 19.6418 55.8404 26.3031 51.5958L38.0037 44.1385C39.5845 43.1442 40.9403 41.8309 41.9846 40.2827C43.0288 38.7345 43.7385 36.9854 44.0681 35.1473C44.6262 32.0512 44.136 28.8574 42.6751 26.0711C43.6764 24.5519 44.3592 22.8454 44.6823 21.0547C45.0158 19.1796 44.9715 17.2568 44.5519 15.3991C44.1322 13.5413 43.3456 11.7861 42.2384 10.2365Z" fill="#FF3E00"/>
<path d="M20.5535 47.8122C18.7122 48.291 16.7683 48.1932 14.9844 47.5319C13.2005 46.8707 11.6624 45.6779 10.578 44.1146C9.9122 43.1827 9.43922 42.1272 9.18681 41.01C8.9344 39.8928 8.90766 38.7365 9.10814 37.6088C9.17603 37.2386 9.26946 36.8735 9.38775 36.5162L9.6081 35.8443L10.2076 36.2846C11.592 37.3018 13.1399 38.0752 14.7846 38.5714L15.2195 38.7034L15.1794 39.1374C15.1263 39.7548 15.2935 40.3711 15.6513 40.8771C15.9777 41.348 16.4407 41.7074 16.9778 41.9067C17.5149 42.1061 18.1003 42.1358 18.6548 41.9918C18.9091 41.9239 19.1515 41.8174 19.3735 41.676L31.0745 34.2195C31.3608 34.0392 31.6064 33.8013 31.7957 33.5208C31.9849 33.2404 32.1137 32.9236 32.1738 32.5906C32.2338 32.2507 32.2256 31.9023 32.1495 31.5656C32.0735 31.2289 31.9311 30.9108 31.7308 30.6297C31.4043 30.1587 30.9411 29.7992 30.4038 29.5998C29.8665 29.4003 29.281 29.3705 28.7262 29.5143C28.4722 29.5823 28.2302 29.6887 28.0084 29.8299L23.5434 32.6763C22.8092 33.1431 22.008 33.4949 21.1674 33.7197C19.3261 34.1984 17.3823 34.1005 15.5984 33.4393C13.8144 32.778 12.2764 31.5852 11.1921 30.022C10.5262 29.0901 10.0532 28.0346 9.80081 26.9174C9.5484 25.8002 9.52167 24.6439 9.72218 23.5162C9.92048 22.411 10.3473 21.3592 10.9753 20.4283C11.6033 19.4974 12.4187 18.7078 13.3693 18.1101L25.0692 10.6529C25.8037 10.1853 26.6056 9.83302 27.4468 9.60827C29.2881 9.12953 31.2319 9.2274 33.0158 9.88864C34.7997 10.5499 36.3377 11.7427 37.4221 13.3059C38.0879 14.2378 38.5609 15.2933 38.8133 16.4105C39.0657 17.5277 39.0925 18.684 38.892 19.8117C38.8238 20.1818 38.7304 20.5469 38.6124 20.9043L38.392 21.5762L37.7929 21.1366C36.4086 20.1188 34.8605 19.3451 33.2155 18.8488L32.7807 18.7168L32.8207 18.2828C32.8734 17.6654 32.7063 17.0492 32.3488 16.5431C32.0225 16.0722 31.5595 15.7128 31.0223 15.5135C30.4852 15.3141 29.8999 15.2844 29.3453 15.4283C29.0911 15.4963 28.8487 15.6028 28.6266 15.7442L16.9257 23.201C16.6394 23.3812 16.3939 23.619 16.2047 23.8994C16.0156 24.1798 15.887 24.4965 15.8272 24.8294C15.7668 25.1693 15.7748 25.5178 15.8507 25.8545C15.9266 26.1913 16.0689 26.5095 16.2693 26.7906C16.5959 27.2615 17.0591 27.621 17.5963 27.8205C18.1336 28.0199 18.7192 28.0498 19.274 27.906C19.5282 27.8379 19.7705 27.7313 19.9926 27.5901L24.457 24.7449C25.1909 24.2774 25.9921 23.9252 26.8327 23.7006C28.674 23.2219 30.6179 23.3197 32.4018 23.981C34.1857 24.6422 35.7237 25.835 36.8081 27.3983C37.474 28.3302 37.947 29.3857 38.1994 30.5029C38.4518 31.62 38.4785 32.7764 38.278 33.904C38.0796 35.0094 37.6527 36.0612 37.0247 36.9922C36.3968 37.9232 35.5814 38.713 34.6309 39.3111L22.9309 46.7676C22.1964 47.2352 21.3948 47.5875 20.5535 47.8122Z" fill="white"/>
</svg>
